<svg width="34" height="31" viewBox="0 0 34 31" fill="none" xmlns="http://www.w3.org/2000/svg">
<rect width="34" height="31" rx="4" fill="#EBF3FF"/>
<path d="M15.55 18.15V18.65H16.05H17.9H18.4V18.15C18.4 17.629 18.4606 17.2672 18.5529 17.034C18.6334 16.8307 18.9105 16.4637 19.4932 15.9136L19.4985 15.9087L19.5036 15.9036C19.955 15.4521 20.322 15.0114 20.5966 14.5809C20.9065 14.0949 21.05 13.527 21.05 12.9C21.05 11.8261 20.6468 10.9513 19.8203 10.3465C19.0425 9.77737 18.1281 9.50001 17.1 9.50001C16.0596 9.50001 15.1659 9.77567 14.4652 10.3682C13.8075 10.9243 13.3403 11.6002 13.0758 12.3915L12.9254 12.8414L13.3667 13.0152L15.0167 13.6652L15.5332 13.8687L15.6818 13.3338C15.7394 13.1264 15.881 12.864 16.1469 12.5453C16.316 12.3427 16.599 12.2 17.1 12.2C17.544 12.2 17.7886 12.3195 17.9308 12.4752C18.1253 12.6881 18.2 12.8921 18.2 13.1C18.2 13.3261 18.1342 13.5412 17.9875 13.7555C17.8161 14.0057 17.5985 14.2427 17.3304 14.4655L17.3243 14.4706L17.3183 14.4758C16.9441 14.8076 16.6345 15.1056 16.3937 15.3687C16.1579 15.6263 15.967 15.8729 15.8528 16.1014C15.6281 16.5508 15.55 17.2678 15.55 18.15ZM17.001 25.5H17C15.6817 25.5 14.4494 25.2504 13.298 24.7539C12.137 24.2532 11.1321 23.5757 10.2787 22.7216C9.4251 21.8674 8.74777 20.8623 8.24709 19.7019C7.75059 18.5512 7.50064 17.3188 7.5 15.9998C7.49937 14.681 7.74926 13.449 8.24691 12.2985C8.749 11.1378 9.4265 10.1325 10.2789 9.27817C11.1308 8.42438 12.1355 7.74726 13.2976 7.2473C14.4507 6.75122 15.6833 6.50128 17.0005 6.5C18.317 6.49873 19.549 6.74855 20.7016 7.24694C21.8643 7.74973 22.8695 8.42719 23.7216 9.27869C24.5736 10.13 25.2513 11.135 25.754 12.2984C26.2524 13.4516 26.5019 14.6836 26.5 15.9993C26.4981 17.3159 26.2481 18.5487 25.7526 19.7027C25.2533 20.8653 24.5763 21.8697 23.7221 22.7208C22.8669 23.5728 21.8613 24.2508 20.701 24.7543C19.5516 25.253 18.32 25.5025 17.001 25.5ZM16.95 22.5C17.4292 22.5 17.8534 22.3287 18.1916 21.9906C18.5297 21.6524 18.7009 21.2282 18.7 20.7491C18.6991 20.2714 18.5286 19.8483 18.193 19.5099C17.8551 19.1692 17.4292 18.9982 16.9481 19C16.4696 19.0018 16.0458 19.1722 15.709 19.5099C15.373 19.8469 15.2027 20.2698 15.2 20.7472C15.1973 21.2291 15.3694 21.6552 15.7114 21.9935C16.0503 22.3287 16.4728 22.5 16.95 22.5Z" stroke="#5980F9"/>
</svg>
