<svg width="34" height="31" viewBox="0 0 34 31" fill="none" xmlns="http://www.w3.org/2000/svg">
<rect width="34" height="31" rx="4" fill="#EBF3FF"/>
<path d="M17 24C14.7 24 12.696 23.2377 10.988 21.713C9.28 20.1883 8.30067 18.284 8.05 16H10.1C10.3333 17.7333 11.1043 19.1667 12.413 20.3C13.7217 21.4333 15.2507 22 17 22C18.95 22 20.6043 21.321 21.963 19.963C23.3217 18.605 24.0007 16.9507 24 15C23.9993 13.0493 23.3203 11.3953 21.963 10.038C20.6057 8.68067 18.9513 8.00133 17 8C15.85 8 14.775 8.26667 13.775 8.8C12.775 9.33333 11.9333 10.0667 11.25 11H14V13H8V7H10V9.35C10.85 8.28333 11.8877 7.45833 13.113 6.875C14.3383 6.29167 15.634 6 17 6C18.25 6 19.421 6.23767 20.513 6.713C21.605 7.18833 22.555 7.82967 23.363 8.637C24.171 9.44433 24.8127 10.3943 25.288 11.487C25.7633 12.5797 26.0007 13.7507 26 15C25.9993 16.2493 25.762 17.4203 25.288 18.513C24.814 19.6057 24.1723 20.5557 23.363 21.363C22.5537 22.1703 21.6037 22.812 20.513 23.288C19.4223 23.764 18.2513 24.0013 17 24ZM19.8 19.2L16 15.4V10H18V14.6L21.2 17.8L19.8 19.2Z" fill="#5980F9"/>
</svg>
