<svg width="34" height="31" viewBox="0 0 34 31" fill="none" xmlns="http://www.w3.org/2000/svg">
<rect width="34" height="31" rx="4" fill="#EBF3FF"/>
<path d="M16.498 5C13.49 5 11.54 7.019 9.23397 7.755C8.29597 8.055 7.82697 8.204 7.63697 8.415C7.44697 8.625 7.39197 8.934 7.28097 9.55C6.09097 16.146 8.69097 22.244 14.891 24.618C15.556 24.873 15.889 25 16.501 25C17.113 25 17.447 24.872 18.113 24.617C24.312 22.244 26.909 16.146 25.719 9.55C25.608 8.934 25.552 8.625 25.362 8.414C25.172 8.203 24.704 8.054 23.766 7.755C21.459 7.019 19.506 5 16.498 5Z" stroke="#5980F9" stroke-width="1.5" stroke-linecap="round" stroke-linejoin="round"/>
<path d="M14.75 12.959C14.75 12.899 14.758 12.553 14.76 12.119C14.76 11.721 14.726 11.339 14.916 10.989C15.626 9.575 17.666 9.719 18.17 11.159C18.257 11.396 18.263 11.771 18.26 12.119C18.257 12.562 18.266 12.959 18.266 12.959M14.837 13.38C13.757 13.38 13.217 14.16 13.097 14.64C12.977 15.12 12.977 16.86 13.049 17.58C13.289 18.48 13.889 18.852 14.477 18.972C15.017 19.02 17.297 19.002 17.957 19.002C18.917 19.02 19.637 18.66 19.937 17.58C19.997 17.22 20.057 15.24 19.907 14.64C19.589 13.68 18.797 13.38 18.197 13.38H14.837Z" stroke="#5980F9" stroke-width="1.5" stroke-linecap="round" stroke-linejoin="round"/>
</svg>
