<svg width="21" height="20" viewBox="0 0 21 20" fill="none" xmlns="http://www.w3.org/2000/svg">
<path d="M7.39614 16.738L7.359 16.4408L7.07949 16.3333C6.8899 16.2604 6.71305 16.1736 6.5483 16.0731C6.36844 15.9634 6.19181 15.8458 6.01839 15.7201L5.79063 15.5551L5.53132 15.664L2.96215 16.7435L0.65409 12.7569L2.87685 11.0736L3.11162 10.8958L3.06997 10.6043C3.05635 10.5089 3.05 10.4203 3.05 10.338V9.663C3.05 9.57988 3.05638 9.4909 3.06997 9.39571L3.11162 9.10418L2.87685 8.9264L0.65409 7.24314L2.96215 3.25648L5.53132 4.33596L5.79115 4.44514L6.01909 4.27937C6.18855 4.15612 6.36613 4.04028 6.55194 3.93189C6.73404 3.82566 6.91416 3.73576 7.09231 3.66154L7.36015 3.54994L7.39614 3.26202L7.74139 0.5H12.3586L12.7039 3.26202L12.741 3.55917L13.0205 3.66667C13.2103 3.73965 13.3877 3.82663 13.5534 3.9273C13.7332 4.0366 13.9089 4.15378 14.0802 4.27886L14.3083 4.44536L14.5687 4.33596L17.1378 3.25648L19.4459 7.24314L17.2231 8.9264L16.9884 9.10418L17.03 9.39571C17.0436 9.4909 17.05 9.57988 17.05 9.663V10.337C17.05 10.3942 17.0413 10.4605 17.0192 10.5376L16.9252 10.8669L17.1981 11.0736L19.4209 12.7569L17.1135 16.7424L14.5701 15.6646L14.3097 15.5543L14.0809 15.7206C13.9114 15.8439 13.7339 15.9597 13.5481 16.0681C13.366 16.1743 13.1858 16.2642 13.0077 16.3385L12.7399 16.4501L12.7039 16.738L12.3586 19.5H7.74139L7.39614 16.738ZM10.1 14C11.1992 14 12.1514 13.6057 12.9286 12.8286C13.7057 12.0514 14.1 11.0992 14.1 10C14.1 8.90077 13.7057 7.94858 12.9286 7.17145C12.1514 6.39431 11.1992 6 10.1 6C8.98657 6 8.02809 6.39268 7.25637 7.17353C6.48782 7.95119 6.09924 8.90288 6.1 10.0003C6.10076 11.0974 6.48954 12.0488 7.2572 12.8263C8.02831 13.6073 8.98656 14 10.1 14Z" stroke="black"/>
</svg>
