<svg width="16" height="22" viewBox="0 0 16 22" fill="none" xmlns="http://www.w3.org/2000/svg">
<path d="M8 16.5C7.46957 16.5 6.96086 16.2893 6.58579 15.9142C6.21071 15.5391 6 15.0304 6 14.5C6 13.39 6.89 12.5 8 12.5C8.53043 12.5 9.03914 12.7107 9.41421 13.0858C9.78929 13.4609 10 13.9696 10 14.5C10 15.0304 9.78929 15.5391 9.41421 15.9142C9.03914 16.2893 8.53043 16.5 8 16.5ZM14 19.5V9.5H2V19.5H14ZM14 7.5C14.5304 7.5 15.0391 7.71071 15.4142 8.08579C15.7893 8.46086 16 8.96957 16 9.5V19.5C16 20.0304 15.7893 20.5391 15.4142 20.9142C15.0391 21.2893 14.5304 21.5 14 21.5H2C1.46957 21.5 0.960859 21.2893 0.585786 20.9142C0.210714 20.5391 0 20.0304 0 19.5V9.5C0 8.39 0.89 7.5 2 7.5H3V5.5C3 4.17392 3.52678 2.90215 4.46447 1.96447C5.40215 1.02678 6.67392 0.5 8 0.5C8.65661 0.5 9.30679 0.629329 9.91342 0.880602C10.52 1.13188 11.0712 1.50017 11.5355 1.96447C11.9998 2.42876 12.3681 2.97995 12.6194 3.58658C12.8707 4.19321 13 4.84339 13 5.5V7.5H14ZM8 2.5C7.20435 2.5 6.44129 2.81607 5.87868 3.37868C5.31607 3.94129 5 4.70435 5 5.5V7.5H11V5.5C11 4.70435 10.6839 3.94129 10.1213 3.37868C9.55871 2.81607 8.79565 2.5 8 2.5Z" fill="#BFC5DA"/>
</svg>
