<svg width="18" height="22" viewBox="0 0 18 22" fill="none" xmlns="http://www.w3.org/2000/svg">
<path fill-rule="evenodd" clip-rule="evenodd" d="M8.75006 0C7.49028 0 6.2821 0.500445 5.3913 1.39124C4.5005 2.28204 4.00006 3.49022 4.00006 4.75C4.00006 6.00978 4.5005 7.21796 5.3913 8.10876C6.2821 8.99955 7.49028 9.5 8.75006 9.5C10.0098 9.5 11.218 8.99955 12.1088 8.10876C12.9996 7.21796 13.5001 6.00978 13.5001 4.75C13.5001 3.49022 12.9996 2.28204 12.1088 1.39124C11.218 0.500445 10.0098 0 8.75006 0ZM5.50006 4.75C5.50006 3.88805 5.84247 3.0614 6.45196 2.4519C7.06145 1.84241 7.8881 1.5 8.75006 1.5C9.61201 1.5 10.4387 1.84241 11.0482 2.4519C11.6576 3.0614 12.0001 3.88805 12.0001 4.75C12.0001 5.61195 11.6576 6.4386 11.0482 7.0481C10.4387 7.65759 9.61201 8 8.75006 8C7.8881 8 7.06145 7.65759 6.45196 7.0481C5.84247 6.4386 5.50006 5.61195 5.50006 4.75ZM8.75006 11C6.43706 11 4.30506 11.526 2.72606 12.414C1.17006 13.29 5.59019e-05 14.616 5.59019e-05 16.25V16.352C-0.000944098 17.514 -0.00194418 18.972 1.27706 20.014C1.90606 20.526 2.78706 20.891 3.97706 21.131C5.16906 21.373 6.72406 21.5 8.75006 21.5C10.7761 21.5 12.3301 21.373 13.5241 21.131C14.7141 20.891 15.5941 20.526 16.2241 20.014C17.5031 18.972 17.5011 17.514 17.5001 16.352V16.25C17.5001 14.616 16.3301 13.29 14.7751 12.414C13.1951 11.526 11.0641 11 8.75006 11ZM1.50006 16.25C1.50006 15.399 2.12206 14.475 3.46106 13.722C4.77706 12.982 6.64506 12.5 8.75106 12.5C10.8551 12.5 12.7231 12.982 14.0391 13.722C15.3791 14.475 16.0001 15.399 16.0001 16.25C16.0001 17.558 15.9601 18.294 15.2761 18.85C14.9061 19.152 14.2861 19.447 13.2261 19.661C12.1691 19.875 10.7241 20 8.75006 20C6.77606 20 5.33006 19.875 4.27406 19.661C3.21406 19.447 2.59406 19.152 2.22406 18.851C1.54006 18.294 1.50006 17.558 1.50006 16.25Z" fill="#BFC5DA"/>
</svg>
