<svg width="34" height="31" viewBox="0 0 34 31" fill="none" xmlns="http://www.w3.org/2000/svg">
<rect width="34" height="31" rx="4" fill="#EBF3FF"/>
<path d="M17 6.99634H10C9.46957 6.99634 8.96086 7.20705 8.58579 7.58212C8.21071 7.9572 8 8.4659 8 8.99634V22.9963C8 23.5268 8.21071 24.0355 8.58579 24.4106C8.96086 24.7856 9.46957 24.9963 10 24.9963H24C24.5304 24.9963 25.0391 24.7856 25.4142 24.4106C25.7893 24.0355 26 23.5268 26 22.9963V15.9963" stroke="#5980F9" stroke-linecap="round" stroke-linejoin="round"/>
<path d="M23.375 6.62132C23.7728 6.2235 24.3124 6 24.875 6C25.4376 6 25.9771 6.2235 26.375 6.62132C26.7728 7.01914 26.9963 7.55871 26.9963 8.12132C26.9963 8.68393 26.7728 9.2235 26.375 9.62132L17.362 18.6353C17.1245 18.8726 16.8312 19.0462 16.509 19.1403L13.636 19.9803C13.5499 20.0054 13.4587 20.0069 13.3719 19.9847C13.2851 19.9624 13.2058 19.9173 13.1424 19.8539C13.079 19.7905 13.0339 19.7112 13.0116 19.6244C12.9894 19.5376 12.9909 19.4464 13.016 19.3603L13.856 16.4873C13.9505 16.1654 14.1245 15.8724 14.362 15.6353L23.375 6.62132Z" stroke="#5980F9" stroke-linecap="round" stroke-linejoin="round"/>
</svg>
